{
  "accessors": [
    {
      "bufferView": 0,
      "componentType": 5126,
      "count": 13704,
      "max": [
        3.25050592422485,
        -1.29745292663574,
        -11.2930774688721
      ],
      "min": [
        2.08108305931091,
        -2.35183691978455,
        -11.7280263900757
      ],
      "normalized": false,
      "type": "VEC3"
    },
    {
      "bufferView": 1,
      "componentType": 5126,
      "count": 13704,
      "max": [
        0.997145712375641,
        0.978849530220032,
        0.999984085559845
      ],
      "min": [
        -0.996581256389618,
        -0.995245099067688,
        -0.983623266220093
      ],
      "normalized": false,
      "type": "VEC3"
    },
    {
      "bufferView": 2,
      "componentType": 5126,
      "count": 13704,
      "max": [
        0.999198019504547,
        0.895025014877319
      ],
      "min": [
        0.000745999976061285,
        0.00175201892852783
      ],
      "normalized": false,
      "type": "VEC2"
    },
    {
      "bufferView": 3,
      "componentType": 5125,
      "count": 13704,
      "max": [
        6851.0
      ],
      "min": [
        0.0
      ],
      "normalized": false,
      "type": "SCALAR"
    }
  ],
  "asset": {
    "generator": "Huawei RSDZ Library, version: 20210318-B049",
    "version": "2.0"
  },
  "bufferViews": [
    {
      "buffer": 0,
      "byteLength": 164448,
      "byteOffset": 0,
      "target": 34962
    },
    {
      "buffer": 0,
      "byteLength": 164448,
      "byteOffset": 164448,
      "target": 34962
    },
    {
      "buffer": 0,
      "byteLength": 109632,
      "byteOffset": 328896,
      "target": 34962
    },
    {
      "buffer": 0,
      "byteLength": 54816,
      "byteOffset": 438528,
      "target": 34963
    },
    {
      "buffer": 0,
      "byteLength": 700820,
      "byteOffset": 493344,
      "name": "ImageBufferView"
    }
  ],
  "buffers": [
    {
      "byteLength": 1194164,
      "uri": "out.bin"
    }
  ],
  "images": [
    {
      "bufferView": 4,
      "mimeType": "image/jpeg"
    }
  ],
  "materials": [
    {
      "name": "material",
      "pbrMetallicRoughness": {
        "baseColorTexture": {
          "index": 0
        },
        "metallicFactor": 0.0
      }
    }
  ],
  "meshes": [
    {
      "name": "defaultobject",
      "primitives": [
        {
          "attributes": {
            "NORMAL": 1,
            "POSITION": 0,
            "TEXCOORD_0": 2
          },
          "indices": 3,
          "material": 0,
          "mode": 4
        }
      ]
    }
  ],
  "nodes": [
    {
      "children": [
        1
      ],
      "name": "mesh_texture.obj"
    },
    {
      "mesh": 0,
      "name": "defaultobject"
    }
  ],
  "samplers": [
    {
      "magFilter": 9729,
      "minFilter": 9986,
      "wrapR": 10497,
      "wrapS": 10497,
      "wrapT": 10497
    }
  ],
  "scene": 0,
  "scenes": [
    {
      "nodes": [
        0
      ]
    }
  ],
  "textures": [
    {
      "sampler": 0,
      "source": 0
    }
  ]
}
